<svg width="15" height="17" viewBox="0 0 15 17" fill="none" xmlns="http://www.w3.org/2000/svg">
<path d="M1.18546 7.5861C1.24529 6.80436 1.89706 6.20056 2.68109 6.20056H11.5657C12.3497 6.20056 13.0015 6.80436 13.0613 7.5861L13.5835 14.4092C13.6501 15.2802 12.9614 16.0237 12.0879 16.0237H2.15891C1.28538 16.0237 0.596626 15.2802 0.663283 14.4092L1.18546 7.5861Z" stroke="#C4C4C4"/>
<path d="M4.1416 7.63357V4.09761C4.1416 3.76835 4.16939 3.43842 4.28625 3.13059C4.58275 2.34958 5.40751 0.885204 7.39958 1.00717C9.60036 1.14191 10.1572 2.77442 10.2884 3.37911C10.3205 3.5268 10.3262 3.67819 10.3262 3.82931V7.63357" stroke="#C4C4C4"/>
<circle cx="4.1416" cy="7.74426" r="0.607421" fill="#C4C4C4"/>
<circle cx="10.3262" cy="7.74426" r="0.607421" fill="#C4C4C4"/>
</svg>
