<svg width="25" height="23" viewBox="0 0 25 23" fill="none" xmlns="http://www.w3.org/2000/svg">
<path fill-rule="evenodd" clip-rule="evenodd" d="M12.2046 2.55823C13.5545 0.998945 15.6227 0.012207 17.7775 0.012207C21.5919 0.012207 24.5889 2.96024 24.5889 6.71228C24.5889 11.3133 20.3851 15.0629 14.016 20.7441L14.0003 20.7581L12.2046 22.3661L10.4089 20.7703C4.03097 15.0691 0 11.3171 0 6.71228C0 2.96024 2.81731 0.012207 6.63167 0.012207C8.78653 0.012207 10.8547 0.998945 12.2046 2.55823ZM12.3838 19.0646L12.5076 18.9428C18.4025 13.6924 22.2912 10.2206 22.2912 6.69998C22.2912 4.26359 20.4336 2.4363 17.9567 2.4363C16.0495 2.4363 14.1919 3.64232 13.5479 5.31124H11.2321C10.5757 3.64232 8.71806 2.4363 6.81088 2.4363C4.33403 2.4363 2.47639 4.26359 2.47639 6.69998C2.47639 10.2206 6.36505 13.6924 12.26 18.9428L12.3838 19.0646Z" fill="white"/>
</svg>
