<svg width="15" height="16" viewBox="0 0 15 16" fill="none" xmlns="http://www.w3.org/2000/svg">
<path d="M13.9615 15H1.03846C1.03846 15 0.5 15 0.5 13.3846C0.5 11.7692 1.03846 11.7692 1.03846 11.7692L5.88462 9.07692C5.88462 9.07692 5.13482 8.14552 4.80769 7.46154C4.52079 6.86165 4.26923 5.84615 4.26923 5.84615C4.26923 5.84615 3.64326 3.71084 4.26923 2.61538C4.96909 1.39063 5.34615 1 7.5 1C9.65385 1 10.1923 1.53846 10.7308 2.61538C11.2692 3.69231 11.0045 4.6145 10.7308 5.84615C10.4248 7.22318 9.11539 9.07692 9.11539 9.07692L13.9615 11.7692C13.9615 11.7692 14.5 11.7692 14.5 13.3846C14.5 15 13.9615 15 13.9615 15Z" stroke="#C4C4C4"/>
</svg>
